<svg xmlns="http://www.w3.org/2000/svg" width="157.684" height="157.469" viewBox="0 0 157.684 157.469">
  <defs>
    <style>
      .cls-1 {
        fill: #fff;
        fill-rule: evenodd;
      }
    </style>
  </defs>
  <path id="Play_Video_Play_Video_Play_Video_copy" data-name="Play Video ● Play Video ● Play Video ●  copy" class="cls-1" d="M942.754,395.971l0.306-4.733,2.986,0.192a4.537,4.537,0,0,0,3.482-.808,3.8,3.8,0,0,0,.856-4.064,2.861,2.861,0,0,0-.86-1.184,3.537,3.537,0,0,0-1.4-.637,10.7,10.7,0,0,0-1.764-.225l-4.392-.284-0.752,11.644Zm0.663-10.269,2.979,0.192a6.627,6.627,0,0,1,1.43.2,1.727,1.727,0,0,1,.929.75,2.112,2.112,0,0,1,.289,1.275,1.989,1.989,0,0,1-.729,1.524,3.2,3.2,0,0,1-2.156.419l-3.011-.194Zm17.808,13.282,0.336-1.336-5.573-1.4,2.51-9.98-1.5-.377-2.845,11.316Zm4.152,1.471,2.636-2.68,4.436,2.03-0.233,3.78,1.6,0.732,0.514-12.6-1.513-.692-8.93,8.745Zm6.154-6.217a14.873,14.873,0,0,0,1.5-1.764q-0.148.974-.254,2.544l-0.238,3.445-3.6-1.646Zm8.152,14.046,2.817-4.061,7.659-2.871-1.478-1.026-3.812,1.53q-1.269.516-2.222,0.968,0.112-1.124.151-2.3l0.116-4.2-1.544-1.071-0.139,8.089-2.817,4.061Zm13.772,13.022,11.935-3.823-1-1.222-8.561,2.907q-0.966.324-1.878,0.718,0.535-.755,1.094-1.681l4.66-7.7-1.056-1.3-6.194,10.872Zm5.617,8.246,10.038-5.953-0.79-1.328-10.035,5.953Zm4,8.184a8.081,8.081,0,0,0,.89,1.666,4.1,4.1,0,0,0,1.06,1.076,4.222,4.222,0,0,0,1.37.594,5.753,5.753,0,0,0,1.88.107,8.1,8.1,0,0,0,2.3-.587,7.644,7.644,0,0,0,2.4-1.455,4.7,4.7,0,0,0,1.34-2.023,3.884,3.884,0,0,0,.14-1.9,9.851,9.851,0,0,0-.61-1.99l-1.5-3.732-10.83,4.334Zm8.57-6.3,0.91,2.276a6.169,6.169,0,0,1,.52,1.943,3,3,0,0,1-.68,1.846,5.463,5.463,0,0,1-2.39,1.6,7.228,7.228,0,0,1-2.2.55,3.693,3.693,0,0,1-1.69-.246,2.591,2.591,0,0,1-.95-0.747,5.77,5.77,0,0,1-.87-1.6l-0.93-2.313Zm-3.89,24.165,1.36-.242-1.26-7.051,3.9-.7,1.14,6.353,1.35-.241-1.14-6.354,3.52-.629,1.21,6.784,1.36-.242-1.49-8.305-11.48,2.056Zm3.13,4.624a5.15,5.15,0,0,0-2.23,1.9,5.549,5.549,0,0,0-.88,2.92,5.739,5.739,0,0,0,.64,2.854,4.865,4.865,0,0,0,2.06,2.091,6.861,6.861,0,0,0,3.15.811,6.982,6.982,0,0,0,3.15-.587,5.062,5.062,0,0,0,2.21-1.914,5.57,5.57,0,0,0,.86-2.888,5.315,5.315,0,0,0-1.52-4.075,6.37,6.37,0,0,0-4.51-1.694A6.6,6.6,0,0,0,1010.88,460.227Zm6.59,2.3a3.985,3.985,0,0,1,1.04,2.853,3.783,3.783,0,0,1-.65,2.063,3.652,3.652,0,0,1-1.69,1.359,5.953,5.953,0,0,1-2.5.408,4.96,4.96,0,0,1-3.44-1.229,3.954,3.954,0,0,1,.16-5.712,4.665,4.665,0,0,1,3.35-1.035A5.042,5.042,0,0,1,1017.47,462.529Zm-5.02,22.232a3.328,3.328,0,0,0-.82-1.652,3.52,3.52,0,0,0-1.52-1,3.5,3.5,0,0,0-4.43,2.234,3.324,3.324,0,0,0,.2,2.672,3.359,3.359,0,0,0,2.03,1.753,3.555,3.555,0,0,0,1.81.1,3.237,3.237,0,0,0,1.65-.84,3.708,3.708,0,0,0,.97-1.491A3.67,3.67,0,0,0,1012.45,484.761ZM998.006,498.32l3.924,2.659-1.67,2.478a4.531,4.531,0,0,0-1.067,3.412,3.8,3.8,0,0,0,3.077,2.795,2.845,2.845,0,0,0,1.45-.143,3.516,3.516,0,0,0,1.26-.888,11.214,11.214,0,0,0,1.09-1.407l2.46-3.645-9.659-6.54Zm8.524,5.768-1.67,2.471a6.541,6.541,0,0,1-.9,1.136,1.728,1.728,0,0,1-1.11.421,2.12,2.12,0,0,1-1.25-.4,2.006,2.006,0,0,1-.95-1.4,3.267,3.267,0,0,1,.73-2.072l1.69-2.5Zm-20.461,8.645,0.983,0.964,4.023-4.1,7.347,7.206,1.082-1.1-8.33-8.17Zm-3.367,2.849,0.99,3.626-3.987,2.813-3.149-2.1-1.437,1.014,10.628,6.781,1.359-.959-3.065-12.117Zm2.276,8.446a14.878,14.878,0,0,0,.771,2.183q-0.766-.618-2.071-1.5l-2.858-1.938,3.232-2.28Zm-16.234-.021,2.093,4.478-1.37,8.064,1.629-.762,0.6-4.064q0.194-1.356.281-2.407,0.915,0.661,1.91,1.286l3.574,2.213,1.7-.8-6.921-4.189-2.093-4.478Zm-18.194,5.322-2.739,12.227,1.557-.24,1.825-8.857q0.208-1,.331-1.984,0.38,0.843.9,1.795l4.287,7.916,1.652-.255-6.244-10.843Zm-9.943.683,0.189,11.666,1.543-.025-0.189-11.666Zm-9.111-.68a8,8,0,0,0-1.883-.078,4.321,4.321,0,0,0-1.464.374,4.229,4.229,0,0,0-1.206.891,5.713,5.713,0,0,0-1.037,1.565,8.145,8.145,0,0,0-.653,2.284,7.841,7.841,0,0,0,.046,2.811,4.754,4.754,0,0,0,1.073,2.175,3.96,3.96,0,0,0,1.57,1.078,9.765,9.765,0,0,0,2.03.47l3.976,0.59,1.713-11.542Zm1.127,10.571-2.425-.36a6.024,6.024,0,0,1-1.941-.529,3.021,3.021,0,0,1-1.251-1.517,5.43,5.43,0,0,1-.182-2.871,7.266,7.266,0,0,1,.633-2.18,3.679,3.679,0,0,1,1.063-1.334,2.588,2.588,0,0,1,1.124-.445,6.027,6.027,0,0,1,1.823.053l2.464,0.366Zm-18.9-15.516-0.473,1.294,6.728,2.457-1.362,3.731-6.063-2.215-0.47,1.286,6.063,2.215-1.226,3.356-6.474-2.365-0.473,1.294,7.925,2.894,4-10.959Zm-5.576.375a5.121,5.121,0,0,0-.512-2.885,5.524,5.524,0,0,0-2.073-2.237,5.8,5.8,0,0,0-2.784-.894,4.887,4.887,0,0,0-2.846.72,6.877,6.877,0,0,0-2.293,2.311,7,7,0,0,0-1.085,3.016,5.031,5.031,0,0,0,.533,2.874,5.592,5.592,0,0,0,2.059,2.2,5.305,5.305,0,0,0,4.285.745,6.345,6.345,0,0,0,3.737-3.027A6.585,6.585,0,0,0,908.152,524.762Zm-5.313,4.518a3.948,3.948,0,0,1-2.989-.543,3.819,3.819,0,0,1-1.454-1.6,3.7,3.7,0,0,1-.319-2.144,5.983,5.983,0,0,1,.912-2.363,4.955,4.955,0,0,1,2.8-2.35,3.956,3.956,0,0,1,4.849,3.023,4.676,4.676,0,0,1-.8,3.419A5.029,5.029,0,0,1,902.839,529.28Zm-16.662-15.587a3.219,3.219,0,0,0,1.838.128,3.551,3.551,0,0,0,1.627-.81A3.506,3.506,0,1,0,885,507.756a3.556,3.556,0,0,0-1,1.511,3.229,3.229,0,0,0-.1,1.843A3.5,3.5,0,0,0,886.177,513.693Zm-4.427-19.272-4.273,2.059-1.3-2.7a4.543,4.543,0,0,0-2.414-2.636,3.8,3.8,0,0,0-3.961,1.25,2.864,2.864,0,0,0-.608,1.332,3.514,3.514,0,0,0,.134,1.534,10.586,10.586,0,0,0,.67,1.647l1.91,3.965,10.512-5.064Zm-9.27,4.467-1.3-2.689a6.619,6.619,0,0,1-.532-1.343,1.728,1.728,0,0,1,.2-1.177,2.1,2.1,0,0,1,.969-0.877,1.984,1.984,0,0,1,1.685-.115,3.2,3.2,0,0,1,1.424,1.673l1.31,2.717Zm2.83-22.056-1.329.362,1.51,5.544-9.93,2.7,0.406,1.49,11.258-3.065Zm-0.752-4.339-3.629-.981-0.408-4.862L873.928,465l-0.147-1.753-11.227,5.736,0.139,1.658,12,3.488Zm-8.437-2.31a14.794,14.794,0,0,0-2.273-.44q0.921-.349,2.342-1.027l3.117-1.485,0.332,3.942Zm8.218-14-4.922-.449-6.275-5.247-0.163,1.791,3.211,2.562q1.072,0.849,1.937,1.456-1.032.458-2.073,1l-3.713,1.972-0.17,1.87,7.106-3.867,4.922,0.449Zm4.561-18.4-9.186-8.524-0.577,1.467,6.734,6.036q0.758,0.682,1.548,1.285-0.921-.1-2-0.129l-9-.282-0.612,1.555,12.513,0.065Zm4.427-8.922-10.106-5.832-0.772,1.338,10.106,5.831Zm5.186-7.52a7.922,7.922,0,0,0,1.021-1.585,4.341,4.341,0,0,0,.417-1.451,4.234,4.234,0,0,0-.158-1.492,5.742,5.742,0,0,0-.825-1.685,8.168,8.168,0,0,0-1.641-1.719,7.831,7.831,0,0,0-2.448-1.383,4.759,4.759,0,0,0-2.419-.174,3.962,3.962,0,0,0-1.724.809,9.807,9.807,0,0,0-1.432,1.514l-2.52,3.131,9.09,7.315Zm-9.688-4.374,1.537-1.91a6.05,6.05,0,0,1,1.438-1.407,3.028,3.028,0,0,1,1.942-.312,5.427,5.427,0,0,1,2.568,1.3,7.223,7.223,0,0,1,1.56,1.648,3.682,3.682,0,0,1,.614,1.593,2.594,2.594,0,0,1-.185,1.194,6.072,6.072,0,0,1-.968,1.546l-1.562,1.94Zm22.931-8.476-0.879-1.06-5.513,4.574-2.536-3.057,4.968-4.121-0.874-1.054-4.968,4.122-2.282-2.75,5.3-4.4-0.879-1.06-6.493,5.387,7.45,8.979Zm2.5-5.023a5.123,5.123,0,0,0,2.751,1.009,5.519,5.519,0,0,0,2.977-.666,5.8,5.8,0,0,0,2.173-1.956,4.885,4.885,0,0,0,.81-2.822,6.87,6.87,0,0,0-.844-3.144,7,7,0,0,0-2.06-2.456,5.043,5.043,0,0,0-2.752-.985,5.592,5.592,0,0,0-2.938.672,5.306,5.306,0,0,0-2.8,3.329,6.344,6.344,0,0,0,.736,4.752A6.6,6.6,0,0,0,904.257,403.477Zm-1.231-6.865A3.95,3.95,0,0,1,905,394.3a3.824,3.824,0,0,1,2.114-.451,3.7,3.7,0,0,1,2.014.8,5.977,5.977,0,0,1,1.583,1.978,4.955,4.955,0,0,1,.622,3.6,3.957,3.957,0,0,1-5.053,2.67,4.674,4.674,0,0,1-2.55-2.414A5.03,5.03,0,0,1,903.026,396.612Zm21.846-6.533a3.233,3.233,0,0,0-1.04,1.522,3.558,3.558,0,0,0-.123,1.813,3.506,3.506,0,1,0,6.881-1.349,3.54,3.54,0,0,0-.8-1.628,3.22,3.22,0,0,0-1.538-1.021A3.5,3.5,0,0,0,924.872,390.079Z" transform="translate(-862.156 -384.219)"/>
</svg>
