<?xml version="1.0" encoding="utf-8"?>
<!-- Generator: Adobe Illustrator 23.0.0, SVG Export Plug-In . SVG Version: 6.00 Build 0)  -->
<svg version="1.1" id="Слой_1" xmlns="http://www.w3.org/2000/svg" xmlns:xlink="http://www.w3.org/1999/xlink" x="0px" y="0px"
	 viewBox="0 0 106.3 31.1" style="enable-background:new 0 0 106.3 31.1;" xml:space="preserve">
<style type="text/css">
	.st0{display:none;}
	.st1{display:inline;fill:#0F0F13;}
	.st2{display:inline;fill:#FF3D2E;}
	.st3{fill:#3780FF;}
	.st4{fill:#38B137;}
	.st5{fill:#FA3913;}
	.st6{fill:#FCBD06;}
	.st7{display:inline;fill:#29B2FE;}
	.st8{display:inline;}
</style>
<g class="st0">
	<rect x="32.1" y="2" class="st1" width="4" height="25"/>
	<path class="st1" d="M50.1,19c0,3.8-3.2,4.1-4.2,4.1c-2.4,0-2.8-2.2-2.8-3.6V10h-4v9.5c0,2.4,0.7,4.3,2,5.6
		c1.2,1.2,2.9,1.8,4.7,1.8c1.3,0,3.2-0.4,4.2-1.3V27h4V10h-4V19z"/>
	<polygon class="st1" points="62.1,4 58.1,4 58.1,10 55.1,10 55.1,14 58.1,14 58.1,27 62.1,27 62.1,14 65.1,14 65.1,10 62.1,10 	"/>
	<path class="st1" d="M77.7,21.9c-0.9,0.8-2,1.2-3.3,1.2c-2.8,0-4.8-2-4.8-4.8s2-4.8,4.8-4.8c1.2,0,2.4,0.4,3.3,1.2l0.6,0.5l2.7-2.7
		l-0.7-0.6c-1.6-1.4-3.7-2.2-5.9-2.2c-5,0-8.6,3.6-8.6,8.6c0,4.9,3.7,8.7,8.6,8.7c2.3,0,4.4-0.8,6-2.3l0.7-0.6l-2.7-2.7L77.7,21.9z"
		/>
	<path class="st1" d="M95.3,11.5c-1.2-1.2-2.5-1.8-4.4-1.8c-1.3,0-2.8,0.4-3.8,1.3V2h-4v25h4v-9.4c0-3.8,2.7-4.1,3.7-4.1
		c2.4,0,2.3,2.2,2.3,3.6V27h4v-9.9C97.1,14.7,96.7,12.8,95.3,11.5"/>
	<path class="st2" d="M74.3,15.4c1.6,0,2.9,1.3,2.9,2.9c0,1.6-1.3,2.9-2.9,2.9c-1.6,0-2.9-1.3-2.9-2.9
		C71.4,16.7,72.7,15.4,74.3,15.4"/>
	<path class="st1" d="M26.5,20.7c-1.5,1.6-3.6,2.4-5.8,2.4c-4.5,0-7.7-3.5-7.7-8.3c0-4.8,3.2-8.3,7.7-8.3c2.2,0,4.2,0.8,5.7,2.4
		l0.6,0.6l2.7-2.7l-0.6-0.6C27,3.9,24,2.7,20.8,2.7c-6.6,0-11.5,5.2-11.5,12.2c0,6.9,5,12.1,11.5,12.1c3.2,0,6.2-1.3,8.5-3.5
		l0.6-0.6l-2.7-2.7L26.5,20.7z"/>
</g>
<g>
	<path class="st3" d="M21.7,1.9h0.7c2.6,0.1,5.1,1.1,6.9,2.9c-0.7,0.7-1.4,1.3-2,2c-1-0.9-2.3-1.6-3.6-1.9c-2-0.4-4.1,0-5.8,1.1
		c-1.8,1.2-3.1,3.2-3.3,5.4c-0.3,2.1,0.3,4.4,1.7,6c1.3,1.6,3.4,2.6,5.5,2.7c2,0.1,4-0.5,5.4-1.9c1.1-1,1.6-2.4,1.8-3.9
		c-2.3,0-4.7,0-7,0v-2.9h9.8c0.5,3.1-0.2,6.6-2.6,8.8c-1.6,1.6-3.7,2.5-6,2.7c-2.1,0.2-4.4-0.2-6.3-1.2c-2.3-1.2-4.1-3.3-5-5.7
		c-0.8-2.2-0.9-4.8-0.1-7c0.7-2,2.1-3.9,3.9-5.1C17.6,2.7,19.6,2,21.7,1.9z"/>
	<path class="st4" d="M78,2.6h3v20c-1,0-2,0-3,0C78,15.9,78,9.3,78,2.6L78,2.6z"/>
	<path class="st5" d="M38.6,9.5c1.9-0.4,3.9,0,5.4,1.1c1.4,1,2.4,2.5,2.6,4.2c0.4,1.9-0.1,4.1-1.4,5.6c-1.4,1.7-3.6,2.6-5.8,2.5
		c-2-0.1-3.9-1.1-5.1-2.7c-1.3-1.8-1.7-4.3-0.9-6.4C34.2,11.7,36.2,9.9,38.6,9.5 M39,12.2c-0.8,0.2-1.5,0.6-2,1.2
		c-1.4,1.6-1.3,4.3,0.2,5.8c0.9,0.9,2.1,1.3,3.3,1c1.1-0.2,2.1-0.9,2.6-1.9c0.9-1.7,0.7-4-0.8-5.3C41.5,12.2,40.2,11.9,39,12.2
		L39,12.2z"/>
	<path class="st6" d="M53.4,9.5c2.1-0.4,4.4,0.2,6,1.7c2.6,2.3,2.9,6.6,0.7,9.3c-1.3,1.7-3.5,2.6-5.6,2.5c-2-0.1-4-1.1-5.2-2.7
		c-1.4-1.8-1.7-4.4-0.9-6.5C49.1,11.6,51.1,9.9,53.4,9.5 M53.8,12.2c-0.8,0.2-1.5,0.6-2,1.2c-1.3,1.6-1.3,4.2,0.2,5.7
		c0.9,0.9,2.2,1.4,3.4,1.1c1.1-0.2,2.1-0.9,2.6-1.9c0.9-1.7,0.6-4-0.8-5.3C56.4,12.2,55,11.9,53.8,12.2L53.8,12.2z"/>
	<path class="st3" d="M66,10.3c1.6-1,3.8-1.3,5.5-0.4c0.5,0.2,1,0.6,1.4,1.1c0-0.4,0-0.8,0-1.2c0.9,0,1.9,0,2.8,0v12.4
		c0,1.9-0.5,3.8-1.8,5.2c-1.5,1.5-3.7,2-5.8,1.7c-2.2-0.3-4.1-1.9-4.9-3.9c0.8-0.4,1.7-0.7,2.6-1.1c0.5,1.1,1.5,2.1,2.7,2.4
		c1.2,0.2,2.7-0.1,3.5-1.1c0.9-1.1,0.9-2.5,0.8-3.8c-0.6,0.6-1.4,1.2-2.3,1.4c-1.9,0.5-4.1-0.1-5.6-1.4c-1.5-1.3-2.4-3.4-2.3-5.4
		C62.8,13.7,64.1,11.5,66,10.3 M68.9,12.1c-0.9,0.1-1.7,0.6-2.2,1.3c-1.3,1.6-1.3,4.1,0,5.6c0.8,0.9,2,1.4,3.2,1.3
		c1.1-0.1,2.1-0.8,2.7-1.8c0.9-1.6,0.8-3.9-0.5-5.3C71.3,12.4,70.1,11.9,68.9,12.1L68.9,12.1z"/>
	<path class="st5" d="M84.6,11.1c1.7-1.6,4.3-2.1,6.4-1.3c2,0.8,3.4,2.7,4,4.7c-3,1.3-6.1,2.5-9.1,3.8c0.4,0.8,1.1,1.5,1.9,1.8
		c1.2,0.4,2.7,0.3,3.7-0.5c0.4-0.3,0.7-0.7,1-1.1c0.8,0.5,1.5,1,2.3,1.5c-1.1,1.6-2.9,2.8-4.9,3c-2.2,0.3-4.5-0.6-5.9-2.3
		C81.7,18,81.9,13.5,84.6,11.1 M86.1,13.6c-0.5,0.7-0.7,1.5-0.7,2.4c2-0.8,4.1-1.7,6.1-2.5c-0.3-0.8-1.1-1.3-2-1.4
		C88.2,11.8,86.8,12.6,86.1,13.6z"/>
</g>
<g class="st0">
	<path class="st7" d="M14.9,5.6L0.4,4.7l9.5,10.9L14.9,5.6z M7.7,4.4l6.7,0.5L6.1,1.4L7.7,4.4z M16,4.9l3.6-3.5L22,5.2L16,4.9z
		 M15.6,5.6L10.4,16l4.8,5.6l5.4-5.4L22,6L15.6,5.6z M10.7,17.7L8.1,29l6.6-6.7L10.7,17.7z M20.4,1.6l2.6,3.5l11.9-3.5H20.4z"/>
	<path class="st8" d="M31.5,8c0,0.9,0,1.7-0.2,2.6c-0.8,0-1.9-0.3-1.9,1.3c1.3,0,1.6,0,1.6,0s-0.1,2.7-2,2.6
		c-0.7,4.2-1.4,7.9-1.4,7.9h-3.1l1.7-11.7c0,0,0.4-2.4,2.4-2.6L31.5,8z M30.2,22.4l1.6-10.7h2.8l0.2,0.8c0,0,0.7-1.1,2.8-0.8
		c-0.5,2.6-0.6,3-0.6,3s-2.3-0.3-2.5,0.5c-0.2,0.8-1.1,7.2-1.1,7.2L30.2,22.4z M55.2,13.7c-0.6-1.2-1.8-2.3-4.5-2
		c-2.7,0.4-4.6,3.2-4.5,7.1c0.3,3.2,2.4,3.8,3.2,3.9c5.1,0.6,5.1-2.2,5.2-3.3c-1.1,0-1.5,0-2,0c-0.1,0.4-2.2,0.2-2.2,0.2
		s-0.8-0.1-0.8-1.5h5.7C55.2,18.1,55.8,14.9,55.2,13.7z M52.3,16.3c-0.6,0.1-2.5,0-2.5,0C50.5,13.1,52.6,14.5,52.3,16.3z M95.1,13.7
		c-0.6-1.2-1.8-2.3-4.5-2c-2.7,0.4-4.6,3.2-4.5,7.1c0.3,3.2,2.4,3.8,3.2,3.9c5.1,0.6,5.1-2.2,5.2-3.3c-1.1,0-1.5,0-2,0
		c-0.1,0.4-2.2,0.2-2.2,0.2s-0.8-0.1-0.8-1.5h5.7C95.1,18.1,95.7,14.9,95.1,13.7z M92.2,16.3c-0.6,0.1-2.5,0-2.5,0
		C90.4,13.1,92.5,14.5,92.2,16.3L92.2,16.3z"/>
	<path class="st8" d="M45.9,13.7c-0.6-1.2-1.8-2.3-4.5-2c-2.7,0.4-4.6,3.2-4.5,7.1c0.3,3.2,2.4,3.8,3.2,3.9c5.1,0.6,5.1-2.2,5.2-3.3
		c-1.1,0-1.5,0-2,0c-0.1,0.4-2.2,0.2-2.2,0.2s-0.8-0.1-0.8-1.5h5.7C45.9,18.1,46.5,14.9,45.9,13.7L45.9,13.7z M43,16.3
		c-0.6,0.1-2.5,0-2.5,0C41.3,13.1,43.3,14.5,43,16.3L43,16.3z M57.3,8.3l-2.1,14.1h3.3l2.2-14.1L57.3,8.3z M68.4,22.4l1.7-10.8H73
		v0.8c0,0,1-1.2,3.7-0.8c2.7,0.4,1.4,5.5,1.4,5.5l-0.7,5.2h-3.2c0,0,0.8-5.3,0.9-6.7c-0.2-1.6-1.9-1.5-2.3-0.4
		c-0.2,1.4-1.2,7.1-1.2,7.1L68.4,22.4z M83.1,14.8h3l0.3-2.1c0,0,0.4-1-0.9-1c-1.3,0-3.2,0-3.2,0s-3.7,0.6-3.5,8.3
		c0.2,1.4,1.2,2.5,2.5,2.8c0.3,0.1,2.2,0,2.2,0s2.1-0.3,1.8-3.2c-2.2,0.1-3.2,0.2-3.3-0.5C81.8,18.4,82.2,15,83.1,14.8L83.1,14.8z
		 M95.9,15.3l3.9-3.6l-1.5,10.8H95L95.9,15.3z"/>
	<path class="st7" d="M100.5,11.7l-0.6,3.9l6.1-3.9L100.5,11.7z"/>
	<path class="st8" d="M66.5,11.7c-2.5,0-3.1,0-4,0c-0.9,0-1.6,1.5-1.5,3h3.8c0,0,0.4-0.1,0.4,0.3c0,0.3,0,0.7,0,1h-2.8
		c0,0-3.9,0.4-2.7,5.5c0.2,0.8,1.4,1.3,2.1,1.3c0.7,0,2.3-0.7,2.6-0.9l0,0.6l2.9,0c0,0,1-6.6,1.1-7.2C68.7,14.7,68.9,12.6,66.5,11.7
		L66.5,11.7z M63.9,20.1c-1.2,0-1.3-1.2-0.4-1.9c0.9-0.4,1.5-0.2,1.5-0.2S65,20.1,63.9,20.1L63.9,20.1z"/>
</g>
</svg>
